<?xml version="1.0" standalone="no"?>
<!DOCTYPE svg PUBLIC "-//W3C//DTD SVG 20010904//EN"
 "http://www.w3.org/TR/2001/REC-SVG-20010904/DTD/svg10.dtd">
<svg version="1.0" xmlns="http://www.w3.org/2000/svg"
 width="256.000000pt" height="256.000000pt" viewBox="0 0 256.000000 256.000000"
 preserveAspectRatio="xMidYMid meet">
<metadata>
Created by potrace 1.11, written by Peter Selinger 2001-2013
</metadata>
<g transform="translate(0.000000,256.000000) scale(0.100000,-0.100000)"
fill="#000000" stroke="none">
<path d="M214 2550 c-87 -27 -181 -125 -205 -213 -16 -60 -6 -167 20 -219 76
-146 243 -211 389 -151 31 12 61 23 66 23 5 0 96 -86 202 -192 l192 -192 -29
-46 c-30 -49 -58 -110 -65 -144 -3 -12 -8 -32 -11 -46 -7 -32 -7 -148 0 -180
3 -14 8 -35 11 -48 3 -13 17 -49 31 -80 l26 -57 -24 -20 c-13 -11 -87 -70
-165 -132 -105 -83 -143 -108 -151 -99 -28 33 -107 60 -184 63 -97 2 -161 -22
-227 -87 -65 -66 -90 -130 -86 -228 3 -93 26 -149 88 -209 166 -162 437 -94
510 127 18 55 15 153 -6 203 l-15 36 166 131 165 130 38 -33 c38 -35 146 -93
190 -103 123 -27 195 -24 315 11 16 5 23 -2 37 -32 10 -21 38 -76 62 -121 l46
-84 -38 -46 c-61 -75 -80 -129 -77 -218 4 -111 76 -220 175 -267 66 -31 183
-33 251 -5 66 28 139 101 166 166 31 73 27 188 -7 255 -30 59 -96 122 -158
149 -43 19 -161 29 -200 17 -13 -4 -33 27 -106 168 l-38 72 66 62 c50 46 76
81 102 135 38 79 40 80 114 59 8 -2 31 -7 50 -10 43 -8 42 -6 47 -57 20 -205
252 -332 442 -242 46 22 122 99 146 149 23 47 30 173 13 228 -15 48 -75 125
-123 158 -84 58 -201 68 -296 26 -60 -27 -130 -91 -149 -137 -9 -21 -18 -29
-29 -25 -9 2 -32 7 -51 10 -19 3 -51 9 -70 13 l-34 8 -2 66 c-2 75 -24 160
-60 229 -30 61 -125 163 -181 195 -23 14 -43 27 -43 28 0 8 60 167 69 183 8
16 19 20 58 18 115 -5 233 70 283 181 34 73 33 181 -1 254 -52 109 -142 170
-264 178 -91 5 -166 -22 -229 -82 -67 -66 -89 -116 -92 -212 -3 -71 0 -87 25
-140 17 -37 46 -76 75 -101 l47 -41 -16 -44 c-9 -23 -25 -69 -36 -100 l-20
-57 -37 5 c-79 11 -118 11 -184 -2 -72 -14 -180 -57 -199 -80 -6 -8 -19 -14
-28 -14 -20 0 -391 371 -391 391 0 8 6 23 14 34 7 11 14 22 14 25 0 3 4 21 10
41 14 51 6 142 -17 194 -26 59 -90 126 -147 155 -54 26 -175 37 -230 20z m191
-123 c48 -27 93 -92 101 -145 18 -128 -100 -246 -227 -228 -71 10 -154 83
-166 146 -17 86 2 145 62 198 73 64 148 73 230 29z m1329 0 c23 -12 55 -43 73
-70 29 -43 32 -54 29 -110 -9 -203 -268 -268 -371 -93 -49 84 -32 184 43 247
73 61 148 69 226 26z m-344 -756 c135 -38 242 -147 280 -283 70 -256 -118
-508 -380 -511 -135 -2 -243 48 -326 150 -150 183 -102 466 99 598 83 54 225
74 327 46z m962 -424 c86 -50 121 -140 91 -230 -47 -140 -205 -187 -318 -95
-47 39 -68 82 -71 144 -8 158 162 261 298 181z m-1947 -560 c117 -64 137 -227
38 -318 -47 -44 -84 -58 -147 -55 -44 2 -66 9 -99 32 -72 51 -108 144 -84 219
12 36 66 111 87 120 93 36 140 37 205 2z m1496 -213 c166 -112 87 -368 -112
-367 -102 0 -190 86 -195 189 -8 165 172 269 307 178z"/>
</g>
</svg>
